<?xml version="1.0" encoding="utf-8"?>
<!DOCTYPE svg PUBLIC "-//W3C//DTD SVG 1.1//EN" "http://www.w3.org/Graphics/SVG/1.1/DTD/svg11.dtd">
<svg version="1.1" id="レイヤー_1" xmlns="http://www.w3.org/2000/svg" xmlns:xlink="http://www.w3.org/1999/xlink" x="0px"
	 y="0px" width="352.345px" height="108.006px" viewBox="0 0 352.345 108.006" enable-background="new 0 0 352.345 108.006"
	 xml:space="preserve">
<path fill="none" stroke="#231815" stroke-width="0.0283" stroke-linecap="round" stroke-linejoin="round" d="M61.016,45.425
	c0,0.78-0.638,1.417-1.417,1.417h-36.85c-0.78,0-1.417-0.638-1.417-1.417V8.575c0-0.78,0.638-1.417,1.417-1.417h36.85
	c0.78,0,1.417,0.638,1.417,1.417V45.425z"/>
<path fill="none" stroke="#231815" stroke-width="0.0283" stroke-linecap="round" stroke-linejoin="round" d="M115.016,45.425
	c0,0.78-0.638,1.417-1.417,1.417h-36.85c-0.78,0-1.417-0.638-1.417-1.417V8.575c0-0.78,0.638-1.417,1.417-1.417h36.85
	c0.78,0,1.417,0.638,1.417,1.417V45.425z"/>
<path fill="none" stroke="#231815" stroke-width="0.0283" stroke-linecap="round" stroke-linejoin="round" d="M169.016,45.425
	c0,0.78-0.638,1.417-1.417,1.417h-36.85c-0.78,0-1.417-0.638-1.417-1.417V8.575c0-0.78,0.638-1.417,1.417-1.417h36.85
	c0.78,0,1.417,0.638,1.417,1.417V45.425z"/>
<path fill="none" stroke="#231815" stroke-width="0.0283" stroke-linecap="round" stroke-linejoin="round" d="M223.016,45.425
	c0,0.78-0.638,1.417-1.417,1.417h-36.85c-0.78,0-1.417-0.638-1.417-1.417V8.575c0-0.78,0.638-1.417,1.417-1.417h36.85
	c0.78,0,1.417,0.638,1.417,1.417V45.425z"/>
<path fill="none" stroke="#231815" stroke-width="0.0283" stroke-linecap="round" stroke-linejoin="round" d="M277.016,45.425
	c0,0.78-0.638,1.417-1.417,1.417h-36.85c-0.78,0-1.417-0.638-1.417-1.417V8.575c0-0.78,0.638-1.417,1.417-1.417h36.85
	c0.78,0,1.417,0.638,1.417,1.417V45.425z"/>
<path fill="none" stroke="#231815" stroke-width="0.0283" stroke-linecap="round" stroke-linejoin="round" d="M331.016,45.425
	c0,0.78-0.638,1.417-1.417,1.417h-36.85c-0.78,0-1.417-0.638-1.417-1.417V8.575c0-0.78,0.638-1.417,1.417-1.417h36.85
	c0.78,0,1.417,0.638,1.417,1.417V45.425z"/>
<path fill="none" stroke="#231815" stroke-width="0.0283" stroke-linecap="round" stroke-linejoin="round" d="M61.016,99.425
	c0,0.78-0.638,1.417-1.417,1.417h-36.85c-0.78,0-1.417-0.638-1.417-1.417v-36.85c0-0.78,0.638-1.417,1.417-1.417h36.85
	c0.78,0,1.417,0.638,1.417,1.417V99.425z"/>
<path fill="none" stroke="#231815" stroke-width="0.0283" stroke-linecap="round" stroke-linejoin="round" d="M115.016,99.425
	c0,0.78-0.638,1.417-1.417,1.417h-36.85c-0.78,0-1.417-0.638-1.417-1.417v-36.85c0-0.78,0.638-1.417,1.417-1.417h36.85
	c0.78,0,1.417,0.638,1.417,1.417V99.425z"/>
<path fill="none" stroke="#231815" stroke-width="0.0283" stroke-linecap="round" stroke-linejoin="round" d="M169.016,99.425
	c0,0.78-0.638,1.417-1.417,1.417h-36.85c-0.78,0-1.417-0.638-1.417-1.417v-36.85c0-0.78,0.638-1.417,1.417-1.417h36.85
	c0.78,0,1.417,0.638,1.417,1.417V99.425z"/>
<path fill="none" stroke="#231815" stroke-width="0.0283" stroke-linecap="round" stroke-linejoin="round" d="M223.016,99.425
	c0,0.78-0.638,1.417-1.417,1.417h-36.85c-0.78,0-1.417-0.638-1.417-1.417v-36.85c0-0.78,0.638-1.417,1.417-1.417h36.85
	c0.78,0,1.417,0.638,1.417,1.417V99.425z"/>
<path fill="none" stroke="#231815" stroke-width="0.0283" stroke-linecap="round" stroke-linejoin="round" d="M277.016,99.425
	c0,0.78-0.638,1.417-1.417,1.417h-36.85c-0.78,0-1.417-0.638-1.417-1.417v-36.85c0-0.78,0.638-1.417,1.417-1.417h36.85
	c0.78,0,1.417,0.638,1.417,1.417V99.425z"/>
<path fill="none" stroke="#231815" stroke-width="0.0283" stroke-linecap="round" stroke-linejoin="round" d="M331.016,99.425
	c0,0.78-0.638,1.417-1.417,1.417h-36.85c-0.78,0-1.417-0.638-1.417-1.417v-36.85c0-0.78,0.638-1.417,1.417-1.417h36.85
	c0.78,0,1.417,0.638,1.417,1.417V99.425z"/>
<circle fill="none" stroke="#231815" stroke-width="0.0283" stroke-linecap="round" stroke-linejoin="round" cx="5.669" cy="5.669" r="3.118"/>
<circle fill="none" stroke="#231815" stroke-width="0.0283" stroke-linecap="round" stroke-linejoin="round" cx="346.677" cy="5.669" r="3.118"/>
<circle fill="none" stroke="#231815" stroke-width="0.0283" stroke-linecap="round" stroke-linejoin="round" cx="346.677" cy="102.331" r="3.118"/>
<circle fill="none" stroke="#231815" stroke-width="0.0283" stroke-linecap="round" stroke-linejoin="round" cx="5.669" cy="102.331" r="3.118"/>
<path fill="none" stroke="#231815" stroke-width="0.0283" stroke-linecap="round" stroke-linejoin="round" d="M352.347,102.331
	c0,3.118-2.551,5.669-5.669,5.669H5.669C2.551,108,0,105.449,0,102.331V5.669C0,2.551,2.551,0,5.669,0h341.008
	c3.118,0,5.669,2.551,5.669,5.669V102.331z"/>
</svg>
